# xmcd
#
# Track frame offsets:
#	150
#	17810
#	39122
#	58795
#	74320
#	89217
#	101970
#	119992
#	138462
#	154590
#	178575
#
# Disc length: 2650 seconds
#
# Revision: 1
# Processed by: cddbd v1.5PL3 Copyright (c) Steve Scherf et al.
# Submitted via: CDex 1.50Beta5
#
DISCID=a10a580b
DTITLE=THE RUDE PRESSURES - FAMILY
DYEAR=1900
DGENRE=
TTITLE0=INDIA
TTITLE1=A SPIRIT OF KINDNESS
TTITLE2=WALK WITH LOVE
TTITLE3=PROMISED LOVE
TTITLE4=CAMARADA
TTITLE5=BE REAL
TTITLE6=BRING IT ON HOME TO ME
TTITLE7=JUMPING TO SKY〜WALK IN THE SKY
TTITLE8=DON'T GIVE IT UP
TTITLE9=BABY BABY
TTITLE10=WHOLY HOLY
EXTD=
EXTT0=
EXTT1=
EXTT2=
EXTT3=
EXTT4=
EXTT5=
EXTT6=
EXTT7=
EXTT8=
EXTT9=
EXTT10=
PLAYORDER=
